<svg xmlns="http://www.w3.org/2000/svg" width="117.875" height="34" viewBox="0 0 117.875 34"><ellipse fill="none" stroke="#00796B" stroke-miterlimit="10" cx="15.99" cy="16.861" rx="14.114" ry="14.101"/><path d="M45.881 5.1h1.933c.53 0 .985.198 1.365.596.378.398.568.844.568 1.336v11.076c0 2.688-.777 4.507-2.331 5.453a9.558 9.558 0 0 1-5.06 1.42 8.978 8.978 0 0 1-2.9-.482c-.948-.321-1.706-.843-2.274-1.563-1.1-1.4-1.648-3.313-1.648-5.737 0-2.386.549-4.297 1.648-5.737 1.138-1.477 2.596-2.215 4.378-2.215.947 0 1.781.189 2.501.567a5.404 5.404 0 0 1 1.819 1.762V5.1zm-6.482 11.927c0 1.516.284 2.67.853 3.466.569.795 1.384 1.192 2.445 1.192 1.023 0 1.819-.397 2.388-1.192.531-.796.796-1.95.796-3.466 0-1.362-.284-2.442-.853-3.237-.606-.757-1.421-1.136-2.444-1.136-.986 0-1.763.397-2.332 1.192-.568.758-.853 1.819-.853 3.181zm12.195 7.669v-7.327c0-1.478.218-2.717.654-3.721.435-1.003 1.032-1.809 1.791-2.414.72-.568 1.563-.985 2.53-1.25a11.272 11.272 0 0 1 2.985-.397h.568v4.033h-1.308c-1.1 0-1.915.265-2.445.795-.531.531-.796 1.363-.796 2.499v7.782h-3.979zm11.966-1.363c-.796-.682-1.364-1.6-1.705-2.755a12.67 12.67 0 0 1-.512-3.607c0-1.022.142-2.045.426-3.067s.729-1.874 1.336-2.556c.985-1.136 2.254-1.808 3.809-2.017 1.554-.208 2.956-.085 4.207.369 1.44.568 2.501 1.554 3.184 2.954.644 1.249.966 2.708.966 4.373 0 1.213-.133 2.254-.398 3.125-.266.872-.606 1.609-1.023 2.216-.909 1.249-2.066 2.025-3.468 2.328a7.742 7.742 0 0 1-3.781.085c-1.269-.283-2.283-.766-3.041-1.448zm2.73-9.997c-.796.871-1.157 2.168-1.081 3.892.076 1.724.398 2.925.967 3.606.228.304.625.559 1.194.767a2.706 2.706 0 0 0 1.733.057c.587-.17 1.109-.597 1.564-1.277.455-.683.701-1.779.739-3.295 0-1.363-.219-2.386-.654-3.067-.436-.682-.938-1.116-1.506-1.307a2.77 2.77 0 0 0-1.706-.028c-.568.169-.986.387-1.25.652zm14.639 14.996c0 .529-.19.984-.568 1.363a1.863 1.863 0 0 1-1.364.567h-1.934V16.119c0-2.65.776-4.459 2.331-5.425a9.406 9.406 0 0 1 5.06-1.448c.947 0 1.905.181 2.872.539.966.36 1.734.881 2.303 1.563 1.137 1.477 1.706 3.371 1.706 5.68 0 2.387-.569 4.318-1.706 5.794-1.138 1.44-2.597 2.159-4.378 2.159-.948 0-1.782-.171-2.501-.511-.759-.378-1.365-.966-1.82-1.762v5.624zm6.481-11.134c0-1.477-.284-2.613-.853-3.408-.569-.795-1.384-1.192-2.445-1.192-1.023 0-1.819.397-2.388 1.192-.531.721-.796 1.856-.796 3.408 0 1.439.284 2.519.853 3.238.568.795 1.383 1.192 2.444 1.192.985 0 1.763-.397 2.332-1.192.569-.795.853-1.874.853-3.238zm23.244 7.498h-5.439l-3.196-5.706-3.332 5.706H93.18l5.916-9.307-5.576-8.763h5.235l3.127 5.435 3.468-5.842c.408-.815 1.088-1.223 2.04-1.223h4.08l-6.799 10.462 5.983 9.238zM19.544 9.089l.935.935c.256.257.381.573.372.948-.009.376-.133.684-.372.921l-5.365 5.36c-1.303 1.302-2.56 1.806-3.769 1.513a6.539 6.539 0 0 1-3.137-1.76 6.111 6.111 0 0 1-1.169-1.636c-.303-.614-.417-1.232-.344-1.855.146-1.209.807-2.4 1.981-3.573 1.155-1.155 2.348-1.814 3.577-1.979 1.266-.164 2.329.183 3.192 1.045.458.458.769.952.935 1.484.146.586.156 1.164.028 1.731l3.136-3.134zm-8.915 2.639c-.734.733-1.156 1.43-1.266 2.09-.11.659.092 1.246.605 1.759.496.495 1.074.688 1.733.577.642-.128 1.331-.559 2.064-1.291.66-.66 1.045-1.32 1.155-1.979.073-.66-.138-1.237-.633-1.731-.477-.478-1.046-.66-1.706-.55-.642.089-1.292.465-1.952 1.125zM12.362 24.4a1.27 1.27 0 0 1-.935.385c-.367 0-.679-.128-.936-.385l-.935-.935 6.851-6.845c1.284-1.282 2.536-1.782 3.756-1.498a6.433 6.433 0 0 1 3.15 1.745c.459.458.835 1.009 1.128 1.65s.413 1.264.358 1.869c-.166 1.264-.807 2.456-1.926 3.573-1.156 1.154-2.367 1.813-3.632 1.979-1.248.146-2.302-.211-3.164-1.072-.459-.459-.78-.943-.963-1.457-.185-.55-.193-1.127-.028-1.731L12.362 24.4zm8.53-2.254c.715-.715 1.128-1.402 1.239-2.062s-.092-1.246-.605-1.759c-.496-.495-1.073-.688-1.734-.577-.605.091-1.284.513-2.036 1.264-.697.696-1.083 1.356-1.155 1.979-.11.66.091 1.246.604 1.759.477.477 1.046.66 1.707.55s1.319-.494 1.98-1.154z" fill="#00796B"/></svg>